<?xml version="1.0" encoding="UTF-8" standalone="no"?>
<!-- Created with Inkscape (http://www.inkscape.org/) -->

<svg
   width="114.67262mm"
   height="45.828629mm"
   viewBox="0 0 114.67261 45.828628"
   version="1.1"
   id="svg5"
   xml:space="preserve"
   sodipodi:docname="logo-total.svg"
   inkscape:version="1.2.2 (b0a8486541, 2022-12-01)"
   xmlns:inkscape="http://www.inkscape.org/namespaces/inkscape"
   xmlns:sodipodi="http://sodipodi.sourceforge.net/DTD/sodipodi-0.dtd"
   xmlns="http://www.w3.org/2000/svg"
   xmlns:svg="http://www.w3.org/2000/svg"><sodipodi:namedview
     id="namedview7"
     pagecolor="#ffffff"
     bordercolor="#000000"
     borderopacity="0.25"
     inkscape:showpageshadow="2"
     inkscape:pageopacity="0.0"
     inkscape:pagecheckerboard="0"
     inkscape:deskcolor="#d1d1d1"
     inkscape:document-units="mm"
     showgrid="false"
     inkscape:zoom="1.5280564"
     inkscape:cx="191.74685"
     inkscape:cy="-20.614423"
     inkscape:window-width="2560"
     inkscape:window-height="1523"
     inkscape:window-x="0"
     inkscape:window-y="40"
     inkscape:window-maximized="1"
     inkscape:current-layer="layer1" /><defs
     id="defs2"><rect
       x="-163.73734"
       y="-72.33168"
       width="710.00134"
       height="315.97726"
       id="rect1515" /></defs><g
     inkscape:label="Layer 1"
     inkscape:groupmode="layer"
     id="layer1"
     transform="translate(-23.450525,-44.730397)"><g
       id="logo"
       transform="translate(9.2838991,0.24458904)"><g
         aria-label="M"
         id="logo-m1"
         style="font-size:38.1px;display:inline;stroke-width:0.264583"><path
           d="m 14.166626,74.234367 h 5.219699 V 53.126968 l 7.3533,21.107399 h 4.2672 l 7.3533,-21.107399 v 21.107399 h 5.219699 V 46.078468 h -7.162799 l -7.5057,21.336 -7.5819,-21.336 h -7.162799 z"
           style="font-weight:bold;font-family:'URW Gothic';-inkscape-font-specification:'URW Gothic Bold'"
           id="path268" /></g><g
         aria-label="i"
         id="logo-i1"
         style="font-weight:bold;font-size:38.1px;font-family:'URW Gothic';-inkscape-font-specification:'URW Gothic Bold';stroke-width:0.264583"
         inkscape:label="logo-i1"><path
           d="m 47.92593,74.369545 h 5.0673 V 53.262146 h -5.0673 z m 0,-23.393399 h 5.0673 v -4.7625 h -5.0673 z"
           id="path552" /></g><g
         aria-label="s"
         id="logo-s1"
         style="font-weight:bold;font-size:38.1px;font-family:'URW Gothic';-inkscape-font-specification:'URW Gothic Bold';stroke-width:0.264583"><path
           d="m 55.831642,66.38194 c 0.2286,2.0574 0.5715,3.1623 1.4097,4.2672 1.3716,1.8288 3.7719,2.9337 6.3246,2.9337 4.2291,0 7.5438,-3.1623 7.5438,-7.2009 0,-3.2004 -1.6002,-4.8768 -5.8674,-6.1722 -2.0955,-0.6477 -2.0955,-0.6477 -2.5908,-0.8763 -0.6096,-0.3048 -0.9906,-0.8001 -0.9906,-1.4478 0,-0.9906 0.8382,-1.7526 1.9431,-1.7526 1.0668,0 1.7526,0.5715 1.9812,1.6764 h 4.953 c -0.0762,-1.7907 -0.4953,-2.8575 -1.524,-4.0005 -1.3335,-1.485899 -3.3147,-2.324099 -5.4102,-2.324099 -3.9624,0 -7.0104,2.819399 -7.0104,6.438899 0,3.0861 1.6383,4.8387 5.8674,6.2484 1.905,0.6477 2.0955,0.7239 2.6289,1.0668 0.6096,0.381 0.9525,0.9525 0.9525,1.6383 0,1.1811 -0.9525,2.0574 -2.286,2.0574 -1.4859,0 -2.3241,-0.762 -2.8194,-2.5527 z"
           id="path711" /></g><g
         aria-label="h"
         id="logo-h1"
         style="font-weight:bold;font-size:38.1px;font-family:'URW Gothic';-inkscape-font-specification:'URW Gothic Bold';stroke-width:0.264583"
         transform="translate(1.0211606,0.01404435)"><path
           d="m 71.865673,72.627663 h 5.0673 v -10.7061 c 0,-2.0955 0.1905,-3.2766 0.7239,-4.2291 0.762,-1.2954 2.0574,-2.0193 3.7338,-2.0193 2.9718,0 4.1148,1.7145 4.1148,6.1722 v 10.7823 h 5.067299 v -11.9253 c 0,-3.0861 -0.381,-4.8006 -1.409699,-6.3627 -1.4097,-2.1717 -3.8481,-3.352799 -6.858,-3.352799 -2.2098,0 -3.8481,0.6096 -5.3721,1.981199 v -8.496299 h -5.0673 z"
           id="path558" /></g><g
         aria-label="i"
         id="logo-i2"
         style="font-weight:bold;font-size:38.1px;font-family:'URW Gothic';-inkscape-font-specification:'URW Gothic Bold';stroke-width:0.264583"
         transform="translate(0.14148213,0.60328202)"
         inkscape:label="logo-i2"><path
           d="m 94.54295,73.841423 h 5.0673 V 52.734024 h -5.0673 z m 0,-23.393399 h 5.0673 v -4.7625 h -5.0673 z"
           id="path555" /></g><g
         aria-label="t"
         id="logo-t1"
         style="font-weight:bold;font-size:38.1px;font-family:'URW Gothic';-inkscape-font-specification:'URW Gothic Bold';stroke-width:0.264583"
         transform="translate(-0.14844009,1.9087388)"><path
           d="m 104.75838,74.479195 h 5.0673 v -16.4973 h 3.048 v -4.6101 h -3.048 v -7.048499 h -5.0673 v 7.048499 h -2.4765 v 4.6101 h 2.4765 z"
           id="path714" /></g><g
         aria-label="s"
         id="logo-s2"
         style="font-weight:bold;font-size:38.1px;font-family:'URW Gothic';-inkscape-font-specification:'URW Gothic Bold';stroke-width:0.264583"
         inkscape:label="logo-s2"
         transform="translate(-1.8566801,0.71494823)"><path
           d="m 115.41782,73.319295 c 0.2286,2.0574 0.5715,3.1623 1.4097,4.2672 1.3716,1.8288 3.7719,2.9337 6.3246,2.9337 4.2291,0 7.5438,-3.1623 7.5438,-7.2009 0,-3.2004 -1.6002,-4.8768 -5.8674,-6.1722 -2.0955,-0.6477 -2.0955,-0.6477 -2.5908,-0.8763 -0.6096,-0.3048 -0.9906,-0.8001 -0.9906,-1.4478 0,-0.9906 0.8382,-1.7526 1.9431,-1.7526 1.0668,0 1.7526,0.5715 1.9812,1.6764 h 4.953 c -0.0762,-1.7907 -0.4953,-2.8575 -1.524,-4.0005 -1.3335,-1.485899 -3.3147,-2.324099 -5.4102,-2.324099 -3.9624,0 -7.0104,2.819399 -7.0104,6.438899 0,3.0861 1.6383,4.8387 5.8674,6.2484 1.905,0.6477 2.0955,0.7239 2.6289,1.0668 0.6096,0.381 0.9525,0.9525 0.9525,1.6383 0,1.1811 -0.9525,2.0574 -2.286,2.0574 -1.4859,0 -2.3241,-0.762 -2.8194,-2.5527 z"
           id="path340" /></g><g
         id="knife"
         transform="rotate(80,97.857683,59.216086)"
         style="display:inline"
         inkscape:label="knife"><path
           style="fill:#d7d7d7;fill-opacity:1;stroke-width:0.352778"
           d="m 112.09408,134.29952 c 0.12768,-0.86996 0.56696,-1.06009 0.56696,-0.2454 0,0.4204 -0.14471,0.76436 -0.32157,0.76436 -0.17685,0 -0.28728,-0.23353 -0.24539,-0.51896 z m -2.93297,-48.370163 c 0.0169,-0.410966 0.10052,-0.49456 0.21314,-0.213137 0.1019,0.254661 0.0894,0.558932 -0.0279,0.676157 -0.11723,0.117225 -0.20061,-0.09113 -0.18529,-0.46302 z"
           id="path792" /><path
           style="fill:#d0d0d0;fill-opacity:1;stroke-width:0.352778"
           d="m 109.20203,123.00042 c 0.007,-0.58208 0.0863,-0.7775 0.1757,-0.43426 0.0894,0.34324 0.0836,0.81949 -0.0131,1.05834 -0.0966,0.23884 -0.16982,-0.042 -0.16263,-0.62408 z m 3.11163,0.24376 c -0.003,-0.25398 -0.13769,-0.38003 -0.29938,-0.2801 -0.16169,0.0999 -0.29398,-0.0177 -0.29398,-0.26131 0,-0.24365 0.29104,-0.46493 0.64676,-0.49172 0.72381,-0.0545 0.7973,0.18692 0.29398,0.96576 -0.2485,0.38452 -0.34345,0.40293 -0.34738,0.0674 z m -3.09855,-42.400703 c 0,-0.679097 0.0726,-0.95691 0.16133,-0.617361 0.0887,0.339548 0.0887,0.895173 0,1.234722 -0.0887,0.339548 -0.16133,0.06174 -0.16133,-0.617361 z"
           id="path790" /><path
           style="fill:#c8c8c8;fill-opacity:1;stroke-width:0.352778"
           d="m 115.15833,124.38214 c 0.0169,-0.41097 0.10052,-0.49456 0.21314,-0.21314 0.10191,0.25466 0.0894,0.55893 -0.0279,0.67616 -0.11723,0.11722 -0.20061,-0.0911 -0.18529,-0.46302 z m -3.32609,-1.37042 c -0.1093,-0.28483 -0.0799,-0.59133 0.0654,-0.68112 0.14527,-0.0898 0.28722,0.14326 0.31544,0.51787 0.061,0.81018 -0.10526,0.88145 -0.38086,0.16325 z m -2.31835,-13.44625 c 0.0169,-0.41097 0.10052,-0.49456 0.21314,-0.21314 0.1019,0.25466 0.0894,0.55893 -0.0279,0.67616 -0.11722,0.11722 -0.2006,-0.0911 -0.18528,-0.46302 z m 0.0279,-1.5581 c 0,-0.48507 0.0801,-0.68351 0.17794,-0.44098 0.0979,0.24254 0.0979,0.63941 0,0.88195 -0.0979,0.24253 -0.17794,0.0441 -0.17794,-0.44097 z"
           id="path788" /><path
           style="fill:#c1c1c1;fill-opacity:1;stroke-width:0.352778"
           d="m 109.56788,111.18237 c 0,-0.6791 0.0726,-0.95691 0.16134,-0.61737 0.0887,0.33955 0.0887,0.89518 0,1.23473 -0.0887,0.33955 -0.16134,0.0617 -0.16134,-0.61736 z"
           id="path786" /><path
           style="fill:#b9b9b9;fill-opacity:1;stroke-width:0.352778"
           d="m 111.63056,111.09417 c 0.016,-0.45719 0.10894,-0.58984 0.21909,-0.31286 0.16146,0.406 0.23869,0.406 0.49591,0 0.22362,-0.35295 0.30611,-0.26972 0.31008,0.31286 0.003,0.47277 -0.20859,0.79375 -0.52377,0.79375 -0.32183,0 -0.51825,-0.311 -0.50131,-0.79375 z"
           id="path784" /><path
           style="fill:#b2b2b2;fill-opacity:1;stroke-width:0.352778"
           d="m 109.54174,105.18514 c 0,-0.48507 0.0801,-0.6835 0.17794,-0.44097 0.0979,0.24254 0.0979,0.63941 0,0.88195 -0.0979,0.24253 -0.17794,0.0441 -0.17794,-0.44098 z m 9.84993,-4.43912 c 0.0169,-0.41096 0.10052,-0.49456 0.21313,-0.21313 0.10191,0.25466 0.0894,0.55893 -0.0279,0.67615 -0.11723,0.11723 -0.2006,-0.0911 -0.18529,-0.46302 z m -0.67771,-7.555321 c 0,-0.485069 0.0801,-0.683507 0.17794,-0.440972 0.0979,0.242535 0.0979,0.63941 0,0.881944 -0.0979,0.242535 -0.17794,0.0441 -0.17794,-0.440972 z"
           id="path782" /><path
           style="fill:#aaaaaa;fill-opacity:1;stroke-width:0.352778"
           d="m 109.54174,103.77403 c 0,-0.48507 0.0801,-0.6835 0.17794,-0.44097 0.0979,0.24253 0.0979,0.63941 0,0.88194 -0.0979,0.24254 -0.17794,0.0441 -0.17794,-0.44097 z m 8.79159,-12.200229 c 0.0169,-0.410966 0.10052,-0.494559 0.21314,-0.213137 0.10191,0.254662 0.0894,0.558933 -0.0279,0.676158 -0.11723,0.117225 -0.20061,-0.09113 -0.18529,-0.463021 z"
           id="path780" /><path
           style="fill:#a3a3a3;fill-opacity:1;stroke-width:0.352778"
           d="m 119.21011,104.37618 c 0.13248,-0.34792 0.32974,-0.54371 0.43835,-0.43509 0.10862,0.10861 2.2e-4,0.39327 -0.24087,0.63257 -0.34841,0.34582 -0.38893,0.3053 -0.19748,-0.19748 z m -9.64223,-2.36604 c 0,-0.67909 0.0726,-0.95691 0.16134,-0.61736 0.0887,0.33955 0.0887,0.89518 0,1.23472 -0.0887,0.33955 -0.16134,0.0617 -0.16134,-0.61736 z m 9.82379,-0.20578 c 0.0169,-0.41097 0.10052,-0.49456 0.21313,-0.21314 0.10191,0.25466 0.0894,0.55893 -0.0279,0.67616 -0.11723,0.11722 -0.2006,-0.0911 -0.18529,-0.46302 z m -0.64445,-6.320605 c 0.004,-0.776112 0.0762,-1.052073 0.16054,-0.613248 0.0844,0.438824 0.0812,1.073824 -0.007,1.411111 -0.0883,0.337286 -0.15734,-0.02175 -0.15343,-0.797863 z m -0.41389,-2.851621 c 0.0169,-0.410966 0.10052,-0.494559 0.21314,-0.213136 0.10191,0.254661 0.0894,0.558932 -0.0279,0.676157 -0.11723,0.117225 -0.20061,-0.09113 -0.18529,-0.463021 z m -0.35278,-3.880555 c 0.0169,-0.410966 0.10053,-0.494559 0.21314,-0.213137 0.10191,0.254662 0.0894,0.558932 -0.0279,0.676158 -0.11723,0.117224 -0.2006,-0.09114 -0.18529,-0.463021 z"
           id="path778" /><path
           style="fill:#9b9b9b;fill-opacity:1;stroke-width:0.352778"
           d="m 115.51111,132.49602 c 0.0169,-0.41096 0.10052,-0.49455 0.21314,-0.21313 0.1019,0.25466 0.0894,0.55893 -0.0279,0.67616 -0.11722,0.11722 -0.2006,-0.0911 -0.18528,-0.46303 z m 3.26941,-27.8493 c 0.096,-0.19912 -0.0505,-1.31037 -0.3256,-2.46945 -0.792,-3.33681 -0.79336,-3.349968 -1.05132,-10.166668 -0.16957,-4.481135 -0.12597,-6.690357 0.14113,-7.150236 0.31918,-0.549551 0.39192,-0.358179 0.41755,1.098389 0.0464,2.640758 0.22686,4.909203 0.70142,8.819444 0.83634,6.891271 0.92917,9.035751 0.41794,9.654661 -0.26163,0.31674 -0.39714,0.41298 -0.30112,0.21386 z m -9.22571,-4.57685 c 0.007,-0.582088 0.0862,-0.777504 0.1757,-0.434262 0.0894,0.343241 0.0836,0.819492 -0.0131,1.058332 -0.0966,0.23884 -0.16982,-0.042 -0.16263,-0.62407 z M 117.275,83.107134 c 0.0169,-0.410966 0.10052,-0.494559 0.21314,-0.213136 0.1019,0.254661 0.0894,0.558932 -0.0279,0.676157 -0.11722,0.117225 -0.2006,-0.09113 -0.18528,-0.463021 z m -0.35278,-2.116666 c 0.0169,-0.410966 0.10052,-0.49456 0.21314,-0.213137 0.1019,0.254661 0.0894,0.558932 -0.0279,0.676157 -0.11723,0.117225 -0.20061,-0.09113 -0.18529,-0.46302 z"
           id="path776" /><path
           style="fill:#949494;fill-opacity:1;stroke-width:0.352778"
           d="m 114.80555,119.44325 c 0.0169,-0.41097 0.10053,-0.49456 0.21314,-0.21314 0.10191,0.25466 0.0894,0.55893 -0.0279,0.67616 -0.11723,0.11722 -0.2006,-0.0911 -0.18529,-0.46302 z m 2.32671,-14.66226 c 0.65598,-0.32959 0.71163,-0.50702 0.38434,-1.22534 -0.21049,-0.46197 -0.55566,-0.84478 -0.76705,-0.85068 -0.21139,-0.006 -0.10319,-0.17441 0.24043,-0.37446 0.34363,-0.20005 0.54681,-0.4899 0.4515,-0.64412 -0.47287,-0.76512 -1.04289,-10.399151 -0.92012,-15.551247 0.0439,-1.843263 0.0629,-3.589513 0.0423,-3.880555 -0.0207,-0.291042 -0.10313,-1.481667 -0.18323,-2.645833 l -0.14563,-2.116667 0.48968,2.293055 c 0.29311,1.372525 0.56427,5.550321 0.67548,10.406945 0.10218,4.462639 0.26881,8.510764 0.37029,8.995833 0.10148,0.48507 0.41183,1.834449 0.68967,2.998609 0.27784,1.16417 0.39645,2.21524 0.26357,2.33571 -0.13287,0.12047 -0.71784,0.31468 -1.29992,0.43159 -0.93928,0.18865 -0.97205,0.1692 -0.29128,-0.17284 z m -1.47261,-28.523624 c -0.13394,-0.609832 -0.17,-1.182321 -0.0801,-1.272198 0.0899,-0.08988 0.26484,0.343706 0.3888,0.963517 0.29409,1.470467 0.009,1.755472 -0.30868,0.308681 z"
           id="path774" /><path
           style="fill:#8c8c8c;fill-opacity:1;stroke-width:0.352778"
           d="m 109.18896,125.99903 c 0,-0.48507 0.0801,-0.6835 0.17794,-0.44097 0.0979,0.24253 0.0979,0.63941 0,0.88194 -0.0979,0.24254 -0.17794,0.0441 -0.17794,-0.44097 z m 6.70357,-21.12603 c 0.23983,-0.38402 0.2913,-0.92611 0.12503,-1.31682 -0.15543,-0.36525 -0.33666,-1.76174 -0.40274,-3.1033 -0.0661,-1.341564 -0.1832,-3.120566 -0.26028,-3.953336 -0.0859,-0.928581 0.0142,-1.566117 0.25887,-1.648562 0.27205,-0.09166 0.23064,-0.338282 -0.13015,-0.775091 -0.29104,-0.352362 -0.5583,-1.449741 -0.5939,-2.438619 -0.0356,-0.988879 -0.13838,-2.79085 -0.22838,-4.004381 -0.09,-1.21353 -0.0495,-2.276985 0.0901,-2.363232 0.31696,-0.195889 0.16522,-2.2805 -0.28457,-3.909499 -0.24203,-0.876547 -0.22888,-1.161614 0.0457,-0.991892 0.252,0.155744 0.30147,0.01953 0.14295,-0.393578 -0.13334,-0.347464 -0.0413,-0.880229 0.20463,-1.183924 0.37359,-0.461423 0.36009,-0.503547 -0.0821,-0.256309 -0.43035,0.240614 -0.44682,0.207148 -0.0882,-0.179226 0.24253,-0.261298 0.45103,-1.118025 0.46333,-1.903838 0.0208,-1.331432 0.0477,-1.368677 0.39455,-0.546805 0.20471,0.485069 0.51434,1.993194 0.68806,3.351389 0.39164,3.061731 0.38225,2.835993 0.28591,6.879166 -0.12277,5.152096 0.44725,14.786127 0.92012,15.551247 0.0953,0.15422 -0.10787,0.44407 -0.4515,0.64412 -0.34362,0.20005 -0.45182,0.36856 -0.24043,0.37446 0.21139,0.006 0.55478,0.38478 0.76308,0.84196 0.34186,0.75031 0.2616,0.88709 -0.8245,1.40501 -1.15556,0.55105 -1.18708,0.54792 -0.7956,-0.0789 z m -6.32465,-8.507301 c 0,-0.679097 0.0726,-0.95691 0.16134,-0.617361 0.0887,0.339549 0.0887,0.895174 0,1.234722 -0.0887,0.339549 -0.16134,0.06174 -0.16134,-0.617361 z m -0.0261,-19.402778 c 0,-0.485069 0.0801,-0.683507 0.17794,-0.440972 0.0979,0.242535 0.0979,0.63941 0,0.881944 -0.0979,0.242535 -0.17794,0.0441 -0.17794,-0.440972 z m 4.74929,-4.030823 c -0.32314,-0.761745 -1.03968,-2.119825 -1.5923,-3.017955 -0.55263,-0.898131 -1.11307,-2.021135 -1.24544,-2.495565 l -0.24066,-0.862601 0.77518,0.881944 c 1.03013,1.172006 3.25184,5.852769 3.05014,6.426108 -0.0877,0.249182 -0.42378,-0.170187 -0.74692,-0.931931 z"
           id="path772" /><path
           style="fill:#858585;fill-opacity:1;stroke-width:0.352778"
           d="m 109.56788,115.06292 c 0,-0.6791 0.0726,-0.95691 0.16134,-0.61736 0.0887,0.33955 0.0887,0.89517 0,1.23472 -0.0887,0.33955 -0.16134,0.0617 -0.16134,-0.61736 z m 4.85705,-9.48672 c 0,-0.18663 0.24842,-0.39065 0.55204,-0.45339 0.46342,-0.0957 0.4329,-0.24149 -0.19013,-0.90781 -0.4082,-0.43656 -0.56787,-0.79375 -0.35484,-0.79375 0.22402,0 0.26928,-0.18593 0.10734,-0.44097 -0.154,-0.24253 -0.28486,-0.67909 -0.2908,-0.97014 -0.006,-0.29104 -0.13681,-0.7276 -0.29081,-0.97014 -0.154,-0.24253 -0.15157,-0.44104 0.005,-0.44114 0.15697,-9e-5 0.32391,-0.889742 0.37096,-1.977004 0.0711,-1.642463 -0.005,-1.942134 -0.44914,-1.77166 -0.4064,0.155952 -0.46524,0.05896 -0.24526,-0.404242 0.29471,-0.620558 0.29988,-4.696189 0.007,-5.246172 -0.0886,-0.166176 -0.12471,-0.897451 -0.0803,-1.625055 0.0444,-0.727604 -0.0811,-1.322917 -0.27892,-1.322917 -0.20916,0 -0.17591,-0.221494 0.0794,-0.529167 0.34497,-0.415655 0.34614,-0.529166 0.005,-0.529166 -0.24059,0 -0.3433,-0.235629 -0.23066,-0.529167 0.12369,-0.322337 5.6e-4,-0.529167 -0.31504,-0.529167 -0.65761,0 -0.65033,-0.175775 0.0516,-1.247134 0.54949,-0.838629 0.54009,-0.870782 -0.26458,-0.904697 l -0.83433,-0.03516 0.84869,-0.237473 c 0.73751,-0.206364 0.78373,-0.306841 0.35278,-0.766985 -0.27275,-0.291231 -0.52384,-0.684482 -0.55797,-0.87389 -0.0341,-0.189407 -0.16485,-0.608305 -0.29048,-0.930883 -0.15352,-0.394154 -0.0175,-0.641053 0.41483,-0.752828 0.58427,-0.151068 0.58664,-0.170075 0.0259,-0.207244 -0.65288,-0.04328 -0.88251,-0.746478 -0.24376,-0.746478 0.20548,0 0.27548,-0.15875 0.15557,-0.352778 -0.11992,-0.194028 -0.0697,-0.352778 0.11147,-0.352778 0.29401,0 0.48603,-0.601353 0.95752,-2.998611 0.0763,-0.388056 -0.18644,-1.102431 -0.58392,-1.5875 -0.39748,-0.48507 -0.60071,-0.64382 -0.45162,-0.352778 0.14909,0.291042 -0.21521,0.05292 -0.80954,-0.529167 -0.59434,-0.582083 -1.18919,-1.455208 -1.3219,-1.940277 -0.19299,-0.705417 -0.16105,-0.776028 0.1596,-0.352778 0.31972,0.42204 0.37248,0.297059 0.26059,-0.617361 -0.0772,-0.63059 0.008,-1.146528 0.18914,-1.146528 0.18118,0 0.23255,-0.252451 0.11415,-0.561002 -0.11841,-0.308551 -0.12037,-0.714573 -0.004,-0.902271 0.2196,-0.355326 1.29884,1.380256 2.82937,4.550079 0.49185,1.018645 1.01478,1.852083 1.16207,1.852083 0.40152,0 0.0172,3.626575 -0.4464,4.212857 -0.32328,0.408794 -0.29836,0.447455 0.12688,0.196865 0.4429,-0.260992 0.45629,-0.22181 0.0821,0.240345 -0.24588,0.303695 -0.33797,0.83646 -0.20463,1.183924 0.15852,0.413109 0.10905,0.549322 -0.14295,0.393578 -0.27461,-0.169722 -0.28776,0.115345 -0.0457,0.991892 0.44979,1.628999 0.60153,3.71361 0.28457,3.909499 -0.13955,0.08625 -0.18009,1.149702 -0.0901,2.363232 0.09,1.213531 0.19277,3.015502 0.22838,4.004381 0.0356,0.988878 0.30286,2.086257 0.5939,2.438619 0.36079,0.436809 0.4022,0.683432 0.13015,0.775091 -0.24471,0.08244 -0.34482,0.719981 -0.25887,1.648562 0.0771,0.83277 0.19421,2.611772 0.26028,3.953331 0.0661,1.34156 0.23924,2.71702 0.38481,3.05657 0.14557,0.33955 0.17728,0.8451 0.0705,1.12345 -0.23766,0.61932 -1.64517,1.42636 -1.64517,0.9433 z m -4.88319,-15.913279 c 0,-0.485069 0.0801,-0.683507 0.17794,-0.440972 0.0979,0.242535 0.0979,0.63941 0,0.881944 -0.0979,0.242535 -0.17794,0.0441 -0.17794,-0.440972 z m 0.0261,-2.116666 c 0,-0.679098 0.0726,-0.95691 0.16134,-0.617362 0.0887,0.339549 0.0887,0.895174 0,1.234723 -0.0887,0.339548 -0.16134,0.06174 -0.16134,-0.617361 z m 0,-2.469445 c 0,-0.679097 0.0726,-0.95691 0.16134,-0.617361 0.0887,0.339549 0.0887,0.895174 0,1.234722 -0.0887,0.339549 -0.16134,0.06174 -0.16134,-0.617361 z m -0.054,-2.675231 c 0.0169,-0.410966 0.10052,-0.494559 0.21314,-0.213137 0.1019,0.254661 0.0894,0.558932 -0.0279,0.676158 -0.11722,0.117224 -0.2006,-0.09113 -0.18528,-0.463021 z m 0.0682,-2.263658 c 0,-0.873125 0.0688,-1.230312 0.15288,-0.79375 0.0841,0.436563 0.0841,1.150938 0,1.5875 -0.0841,0.436563 -0.15288,0.07937 -0.15288,-0.79375 z"
           id="path770" /><path
           style="fill:#7d7d7d;fill-opacity:1;stroke-width:0.352778"
           d="m 113.71937,105.9507 c -0.29104,-0.31619 -0.48508,-0.71036 -0.43119,-0.87594 0.38776,-1.19156 0.31296,-3.13213 -0.12724,-3.30105 -0.27272,-0.10465 -0.41405,-0.32263 -0.31407,-0.48441 0.1,-0.16177 -0.0994,-0.45196 -0.443,-0.64486 -0.59061,-0.33156 -0.59123,-0.36366 -0.0114,-0.58705 0.51857,-0.199794 0.59041,-0.593109 0.46501,-2.545682 -0.0888,-1.382762 -0.3349,-2.427687 -0.61333,-2.604236 -0.38068,-0.241386 -0.38126,-0.295837 -0.003,-0.30026 0.25398,-0.003 0.38133,-0.135589 0.28299,-0.294705 -0.42813,-0.69273 -0.49828,-2.181746 -0.10406,-2.208794 0.22968,-0.01576 -0.0407,-0.23105 -0.60095,-0.478424 -0.60228,-0.265954 -0.8601,-0.547704 -0.63084,-0.689393 0.26151,-0.161623 0.28012,-0.522626 0.0572,-1.109075 -0.19475,-0.512223 -0.19913,-0.869455 -0.0107,-0.869455 0.17595,0 0.26042,-0.754063 0.18773,-1.675695 -0.0727,-0.921632 -0.15985,-1.675694 -0.19367,-1.675694 -0.0338,0 -0.10537,-0.555625 -0.15898,-1.234722 -0.0536,-0.679098 -0.3339,-1.90941 -0.62286,-2.734028 -0.28897,-0.824618 -0.38521,-1.499306 -0.21387,-1.499306 0.17133,0 0.31151,-0.168119 0.31151,-0.373597 0,-0.205479 -0.14673,-0.282911 -0.32608,-0.17207 -0.17934,0.11084 -0.38017,-0.07823 -0.44628,-0.420153 -0.17163,-0.887662 0.39209,-7.022728 0.78354,-8.527359 l 0.32951,-1.266543 -0.16187,1.420253 c -0.14171,1.243303 -0.0224,1.550972 0.95796,2.469444 0.61591,0.577056 0.9952,0.811067 0.84286,0.520025 -0.15234,-0.291042 0.0464,-0.132292 0.44175,0.352778 0.3953,0.485069 0.67257,1.120069 0.61616,1.411111 -0.48685,2.511823 -0.69175,3.175 -0.98096,3.175 -0.18389,0 -0.23623,0.15875 -0.11631,0.352778 0.11991,0.194028 0.0499,0.352778 -0.15557,0.352778 -0.61411,0 -0.42241,0.641066 0.24376,0.815154 0.55705,0.145573 0.55337,0.165331 -0.0377,0.202256 -0.47437,0.02963 -0.58882,0.211246 -0.41483,0.658284 0.13214,0.339549 0.26819,0.772332 0.30232,0.961739 0.0341,0.189408 0.28522,0.582659 0.55797,0.87389 0.43095,0.460144 0.38473,0.560621 -0.35278,0.766985 l -0.84869,0.237473 0.83433,0.03516 c 0.80467,0.03392 0.81407,0.06607 0.26458,0.904697 -0.70198,1.071359 -0.70926,1.247134 -0.0516,1.247134 0.3156,0 0.43873,0.20683 0.31504,0.529167 -0.11264,0.293538 -0.01,0.529167 0.23066,0.529167 0.34068,0 0.33951,0.113511 -0.005,0.529166 -0.25534,0.307673 -0.28859,0.529167 -0.0794,0.529167 0.19786,0 0.32337,0.595313 0.27892,1.322917 -0.0444,0.727604 -0.008,1.458879 0.0803,1.625055 0.29323,0.549983 0.28806,4.625614 -0.007,5.246172 -0.21999,0.463206 -0.16114,0.560194 0.24526,0.404242 0.44425,-0.170474 0.52022,0.129197 0.44914,1.77166 -0.0471,1.087262 -0.21399,1.976919 -0.37096,1.977009 -0.15697,1e-4 -0.1594,0.19861 -0.005,0.44114 0.154,0.24254 0.28486,0.6791 0.29081,0.97014 0.006,0.29105 0.1368,0.72761 0.2908,0.97014 0.16194,0.25504 0.11668,0.44097 -0.10734,0.44097 -0.21303,0 -0.0534,0.35719 0.35484,0.79375 0.60212,0.64396 0.64209,0.81449 0.21183,0.90363 -0.2917,0.0604 -0.57981,0.40172 -0.64025,0.75843 -0.10119,0.5972 -0.15177,0.60303 -0.63905,0.0736 z m -1.83003,-6.650988 c 0.25466,-0.101908 0.55893,-0.08938 0.67615,0.02785 0.11723,0.117226 -0.0911,0.200604 -0.46302,0.185286 -0.41096,-0.01693 -0.49456,-0.100522 -0.21313,-0.213136 z m -2.29759,-6.461791 c 0,-1.067153 0.0661,-1.503715 0.14697,-0.970139 0.0808,0.533577 0.0808,1.406702 0,1.940278 -0.0808,0.533577 -0.14697,0.09701 -0.14697,-0.970139 z m 0.62769,-7.966898 c 0.0169,-0.410966 0.10052,-0.494559 0.21314,-0.213137 0.10191,0.254662 0.0894,0.558933 -0.0279,0.676158 -0.11723,0.117225 -0.2006,-0.09113 -0.18529,-0.463021 z m -0.70555,-1.411111 c 0.0169,-0.410966 0.10052,-0.494559 0.21314,-0.213137 0.1019,0.254662 0.0894,0.558933 -0.0279,0.676158 -0.11722,0.117225 -0.2006,-0.09113 -0.18528,-0.463021 z"
           id="path768" /><path
           style="fill:#767676;fill-opacity:1;stroke-width:0.352778"
           d="m 109.94177,104.74299 c 0.0589,-1.06236 0.15086,-1.21926 0.4651,-0.79375 0.55105,0.74615 0.95911,0.65948 0.74526,-0.15829 -0.099,-0.37875 0.002,-0.77417 0.22344,-0.87869 0.22194,-0.10453 0.0463,-0.10144 -0.39023,0.007 -0.64967,0.16116 -0.79571,0.0485 -0.80456,-0.62062 -0.006,-0.44964 -0.0957,-2.301758 -0.1995,-4.115824 -0.15268,-2.668683 -0.10011,-3.245001 0.27539,-3.019087 0.35603,0.214204 0.37514,0.160774 0.082,-0.229477 -0.38669,-0.514883 -0.73642,-14.443413 -0.36265,-14.443413 0.25846,0 1.00907,2.760687 1.10304,4.056944 0.0422,0.582084 0.10693,1.058334 0.14385,1.058334 0.0369,0 0.12659,0.754062 0.19929,1.675694 0.0727,0.921632 -0.0118,1.675695 -0.18773,1.675695 -0.18846,0 -0.18408,0.357232 0.0107,0.869455 0.22297,0.586449 0.20436,0.947452 -0.0572,1.109075 -0.22926,0.141689 0.0286,0.423439 0.63084,0.689393 0.56021,0.247374 0.83063,0.462666 0.60095,0.478424 -0.39422,0.02705 -0.32407,1.516064 0.10406,2.208794 0.0983,0.159116 -0.029,0.291734 -0.283,0.294705 -0.37804,0.0044 -0.37746,0.05887 0.003,0.30026 0.27843,0.176549 0.52452,1.221474 0.61333,2.604236 0.1254,1.952573 0.0536,2.345888 -0.46501,2.545682 -0.57979,0.22339 -0.57916,0.25549 0.0114,0.58705 0.34363,0.1929 0.54298,0.48309 0.443,0.64486 -0.1,0.16178 0.0414,0.37976 0.31406,0.48441 0.34965,0.13417 0.45436,0.62099 0.35515,1.65104 -0.0774,0.80343 -0.2254,1.59781 -0.32891,1.76529 -0.10351,0.16748 0.093,0.4675 0.43659,0.6667 0.46823,0.27143 0.076,0.34316 -1.56532,0.28627 l -2.1901,-0.0759 z m 2.62372,-5.415428 c -0.11722,-0.117225 -0.42149,-0.129758 -0.67615,-0.02785 -0.28143,0.112615 -0.19783,0.196209 0.21313,0.213136 0.37189,0.01532 0.58025,-0.06806 0.46302,-0.185286 z m -2.13291,-14.669676 c -0.11262,-0.281422 -0.19621,-0.197829 -0.21314,0.213137 -0.0153,0.371887 0.0681,0.580246 0.18529,0.463021 0.11722,-0.117225 0.12976,-0.421496 0.0279,-0.676158 z m -0.41738,-4.872743 c 0.11992,-0.194027 0.28804,-0.352777 0.3736,-0.352777 0.0856,0 0.15557,0.15875 0.15557,0.352777 0,0.194028 -0.16812,0.352778 -0.3736,0.352778 -0.20548,0 -0.27548,-0.15875 -0.15557,-0.352778 z"
           id="path766" /><path
           style="fill:#6e6e6e;fill-opacity:1;stroke-width:0.352778"
           d="m 113.71937,106.59625 c -0.31796,-0.20547 -0.36147,-0.34413 -0.10901,-0.34737 0.23108,-0.003 0.51826,0.15335 0.63818,0.34737 0.27069,0.43799 0.14856,0.43799 -0.52917,0 z m -3.8527,-2.32245 c 0.0169,-0.41097 0.10052,-0.49456 0.21313,-0.21314 0.10191,0.25466 0.0894,0.55893 -0.0279,0.67616 -0.11722,0.11723 -0.2006,-0.0911 -0.18528,-0.46302 z m 0.3531,-0.62351 c -0.2441,-0.45611 -0.37192,-1.21017 -0.28404,-1.67569 0.1461,-0.77393 0.16389,-0.7613 0.20782,0.14751 0.0409,0.8454 0.16665,0.96449 0.84179,0.79701 0.43657,-0.1083 0.61217,-0.11139 0.39023,-0.007 -0.22194,0.10453 -0.32248,0.49994 -0.22344,0.87869 0.25104,0.95998 -0.39552,0.86245 -0.93236,-0.14065 z m -0.29199,-3.933202 c 0.004,-0.776111 0.0762,-1.052073 0.16054,-0.613248 0.0844,0.438825 0.0812,1.07382 -0.007,1.41111 -0.0883,0.33729 -0.15734,-0.0217 -0.15342,-0.797862 z m -0.0611,-8.496065 c 0.0169,-0.410966 0.10052,-0.494559 0.21313,-0.213136 0.10191,0.254661 0.0894,0.558932 -0.0279,0.676157 -0.11722,0.117225 -0.2006,-0.09113 -0.18528,-0.463021 z"
           id="path764" /><path
           style="fill:#676767;fill-opacity:1;stroke-width:0.352778"
           d="m 112.59489,137.75249 c 0.25466,-0.10191 0.55893,-0.0894 0.67616,0.0278 0.11722,0.11722 -0.0911,0.2006 -0.46302,0.18528 -0.41097,-0.0169 -0.49456,-0.10052 -0.21314,-0.21313 z m 2.91622,-3.49258 c 0.0169,-0.41097 0.10052,-0.49456 0.21314,-0.21313 0.1019,0.25466 0.0894,0.55893 -0.0279,0.67615 -0.11722,0.11723 -0.2006,-0.0911 -0.18528,-0.46302 z m -0.32493,-6.14421 c 0,-0.48507 0.0801,-0.68351 0.17794,-0.44097 0.0979,0.24253 0.0979,0.63941 0,0.88194 -0.0979,0.24254 -0.17794,0.0441 -0.17794,-0.44097 z m -0.35277,-7.05556 c 0,-0.48507 0.0801,-0.6835 0.17793,-0.44097 0.0979,0.24254 0.0979,0.63941 0,0.88195 -0.0979,0.24253 -0.17793,0.0441 -0.17793,-0.44098 z m -0.35278,-6.35 c 0,-0.48507 0.0801,-0.6835 0.17793,-0.44097 0.0979,0.24254 0.0979,0.63941 0,0.88195 -0.0979,0.24253 -0.17793,0.0441 -0.17793,-0.44098 z m -4.64083,-8.20208 c -10e-4,-0.34064 3.22099,-0.33601 3.75833,0.005 0.22435,0.14255 -0.52926,0.25918 -1.67471,0.25918 -1.14545,0 -2.08308,-0.11906 -2.08362,-0.26458 z"
           id="path762" /><path
           style="fill:#515151;fill-opacity:1;stroke-width:0.352778"
           d="m 109.16111,129.6738 c 0.0169,-0.41097 0.10052,-0.49456 0.21314,-0.21314 0.1019,0.25466 0.0894,0.55893 -0.0279,0.67616 -0.11723,0.11723 -0.20061,-0.0911 -0.18529,-0.46302 z m 4.96674,-21.31366 c 0,-0.48507 0.0801,-0.6835 0.17794,-0.44097 0.0979,0.24254 0.0979,0.63941 0,0.88195 -0.0979,0.24253 -0.17794,0.0441 -0.17794,-0.44098 z m -3.13766,-1.66425 c 0.53625,-0.0811 1.33,-0.0789 1.76389,0.005 0.4339,0.0837 -0.005,0.15008 -0.97499,0.14744 -0.97014,-0.003 -1.32514,-0.0712 -0.7889,-0.15225 z"
           id="path760" /><path
           style="fill:#494949;fill-opacity:1;stroke-width:0.352778"
           d="m 115.51111,135.31825 c 0.0169,-0.41097 0.10052,-0.49456 0.21314,-0.21314 0.1019,0.25466 0.0894,0.55893 -0.0279,0.67616 -0.11722,0.11722 -0.2006,-0.0911 -0.18528,-0.46302 z m -6.35,-4.58611 c 0.0169,-0.41097 0.10052,-0.49456 0.21314,-0.21314 0.1019,0.25466 0.0894,0.55893 -0.0279,0.67616 -0.11723,0.11722 -0.20061,-0.0911 -0.18529,-0.46302 z m 5.99722,-1.05834 c 0.0169,-0.41097 0.10052,-0.49456 0.21314,-0.21314 0.10191,0.25466 0.0894,0.55893 -0.0279,0.67616 -0.11723,0.11723 -0.20061,-0.0911 -0.18529,-0.46302 z m -0.35278,-7.05555 c 0.0169,-0.41097 0.10053,-0.49456 0.21314,-0.21314 0.10191,0.25466 0.0894,0.55893 -0.0279,0.67616 -0.11723,0.11722 -0.2006,-0.0911 -0.18529,-0.46302 z m -5.25074,-4.55672 c 0.007,-0.58208 0.0862,-0.7775 0.1757,-0.43426 0.0894,0.34325 0.0836,0.8195 -0.0131,1.05834 -0.0966,0.23884 -0.16982,-0.042 -0.16263,-0.62408 z m 4.9662,-1.23472 c 0,-0.87312 0.0688,-1.23031 0.15288,-0.79375 0.0841,0.43656 0.0841,1.15094 0,1.5875 -0.0841,0.43656 -0.15288,0.0794 -0.15288,-0.79375 z m -0.38009,-6.87917 c 0.007,-0.58208 0.0863,-0.7775 0.1757,-0.43426 0.0894,0.34325 0.0836,0.8195 -0.0131,1.05834 -0.0966,0.23884 -0.16982,-0.042 -0.16263,-0.62408 z"
           id="path758" /><path
           style="fill:#424242;fill-opacity:1;stroke-width:0.352778"
           d="m 115.51111,136.37658 c 0.0169,-0.41097 0.10052,-0.49456 0.21314,-0.21314 0.1019,0.25466 0.0894,0.55893 -0.0279,0.67616 -0.11722,0.11723 -0.2006,-0.0911 -0.18528,-0.46302 z m -0.28454,-4.7331 c 0,-0.87313 0.0688,-1.23032 0.15288,-0.79375 0.0841,0.43656 0.0841,1.15093 0,1.5875 -0.0841,0.43656 -0.15288,0.0794 -0.15288,-0.79375 z m -0.34315,-6.70278 c 0,-1.06715 0.0661,-1.50372 0.14696,-0.97014 0.0808,0.53358 0.0808,1.4067 0,1.94028 -0.0808,0.53357 -0.14696,0.097 -0.14696,-0.97014 z m -0.36953,-5.46806 c 0.004,-0.77611 0.0762,-1.05207 0.16054,-0.61324 0.0844,0.43882 0.0812,1.07382 -0.007,1.41111 -0.0883,0.33728 -0.15733,-0.0218 -0.15342,-0.79787 z m -0.37297,-7.76111 c 0.007,-0.58208 0.0863,-0.7775 0.1757,-0.43426 0.0894,0.34325 0.0836,0.8195 -0.0131,1.05834 -0.0966,0.23884 -0.16982,-0.042 -0.16263,-0.62408 z"
           id="path756" /><path
           style="fill:#3a3a3a;fill-opacity:1;stroke-width:0.352778"
           d="m 115.21233,134.11292 c 0,-0.6791 0.0726,-0.95691 0.16133,-0.61736 0.0887,0.33955 0.0887,0.89517 0,1.23472 -0.0887,0.33955 -0.16133,0.0617 -0.16133,-0.61736 z m -0.37892,-6.70278 c 0,-0.48507 0.0801,-0.6835 0.17793,-0.44097 0.0979,0.24254 0.0979,0.63941 0,0.88195 -0.0979,0.24253 -0.17793,0.0441 -0.17793,-0.44098 z m -0.38063,-6.203 c 0.0169,-0.41097 0.10052,-0.49456 0.21313,-0.21314 0.10191,0.25466 0.0894,0.55893 -0.0279,0.67616 -0.11722,0.11722 -0.2006,-0.0911 -0.18528,-0.46302 z m -0.29879,-7.55533 c 0,-0.6791 0.0726,-0.95691 0.16134,-0.61736 0.0887,0.33955 0.0887,0.89517 0,1.23472 -0.0887,0.33955 -0.16134,0.0617 -0.16134,-0.61736 z"
           id="path754" /><path
           style="fill:#333333;fill-opacity:1;stroke-width:0.352778"
           d="m 109.58637,137.71746 c -0.33607,-0.21927 -0.3406,-3.57739 -0.0209,-15.52411 l 0.4079,-15.24432 h 2.14693 2.14692 l -0.13893,1.45687 c -0.147,1.54144 0.69706,20.08881 1.20455,26.4687 0.10277,1.29205 0.0596,2.42248 -0.0959,2.51206 -0.57094,0.32884 -5.23501,0.6019 -5.65051,0.3308 z m 3.78022,-3.42815 c 0,-1.01212 -0.86545,-1.37721 -1.57729,-0.66537 -0.66318,0.66318 -0.66318,0.66756 0,1.33074 0.71184,0.71184 1.57729,0.34675 1.57729,-0.66537 z m -0.3565,-10.93162 c 0.62858,-0.75739 0.16319,-1.66377 -0.78484,-1.52854 -0.90415,0.12898 -1.28313,1.28843 -0.56906,1.74096 0.66135,0.41912 0.85498,0.38874 1.3539,-0.21242 z m 0.004,-11.64616 c 0.35037,-0.42217 0.35037,-0.63615 0,-1.05833 -0.88158,-1.06224 -2.13818,-0.2495 -1.63632,1.05833 0.11168,0.29104 0.42673,0.52917 0.7001,0.52917 0.27338,0 0.69467,-0.23813 0.93622,-0.52917 z"
           id="path752" /></g></g></g></svg>
